<svg width="12" height="12" viewBox="0 0 12 12" fill="none" xmlns="http://www.w3.org/2000/svg">
<path fill-rule="evenodd" clip-rule="evenodd" d="M5.70496 8.56837C5.70496 8.56837 6.65742 9.29471 7.38578 8.84773C8.89852 7.95377 8.84249 7.61854 9.57085 8.00965C12.1481 9.46232 12.0361 10.4121 11.98 10.6356C11.6999 11.5855 10.0191 12.3118 8.22619 11.8648C6.37729 11.4178 4.52838 10.4121 3.07167 8.95947C1.61496 7.45092 0.606465 5.66301 0.158246 3.81923C-0.346 1.97545 0.438383 0.299283 1.33482 0.0199219C1.55893 -0.0359503 2.5114 -0.147695 3.96811 2.42243C4.3603 3.14876 4.08016 3.14876 3.1277 4.60144C2.67948 5.32778 3.40783 6.27761 3.40783 6.27761C3.40783 6.27761 3.91208 7.05982 4.41633 7.56267C4.9766 8.12139 5.70496 8.56837 5.70496 8.56837Z" fill="#26CE17"/>
</svg>
