<svg width="14" height="14" viewBox="0 0 14 14" fill="none" xmlns="http://www.w3.org/2000/svg">
<rect opacity="0.01" width="14" height="14" fill="#F24957"/>
<path d="M7.0097 9.75156C8.43915 9.75156 9.59631 8.59439 9.59631 7.16496V2.87664C9.59631 1.4472 8.43915 0.290039 7.0097 0.290039C5.58026 0.290039 4.4231 1.4472 4.4231 2.87664V7.16496C4.45713 8.59439 5.58026 9.75156 7.0097 9.75156Z" fill="#49494C"/>
<path d="M11.0255 5.29336C10.7532 5.29336 10.515 5.5316 10.515 5.80388V7.19928C10.515 9.13923 8.94941 10.7048 7.00946 10.7048C5.06951 10.7048 3.50394 9.13923 3.50394 7.19928V5.66774C3.50394 5.39547 3.2657 5.15723 2.99342 5.15723C2.72115 5.15723 2.48291 5.39547 2.48291 5.66774V7.19928C2.48291 9.51361 4.25269 11.4536 6.49895 11.6918V13.196C6.49895 13.4779 6.72751 13.7065 7.00946 13.7065C7.29141 13.7065 7.51997 13.4779 7.51997 13.196V11.6918C9.76623 11.4536 11.536 9.51361 11.536 7.19928V5.80388C11.536 5.49757 11.2978 5.29336 11.0255 5.29336Z" fill="#49494C"/>
<mask id="mask0" style="mask-type:alpha" maskUnits="userSpaceOnUse" x="4" y="0" width="6" height="10">
<path d="M7.0097 9.75058C8.43915 9.75058 9.59631 8.59342 9.59631 7.16398V2.87566C9.59631 1.44623 8.43915 0.289062 7.0097 0.289062C5.58026 0.289062 4.4231 1.44623 4.4231 2.87566V7.16398C4.45713 8.59342 5.58026 9.75058 7.0097 9.75058Z" fill="white"/>
</mask>
<g mask="url(#mask0)">
<rect x="1.00037" y="5" width="10" height="6" fill="#59E1A0"/>
</g>
</svg>
