<?xml version="1.0" standalone="no"?><!DOCTYPE svg PUBLIC "-//W3C//DTD SVG 1.1//EN" "http://www.w3.org/Graphics/SVG/1.1/DTD/svg11.dtd"><svg t="1607412583056" class="icon" viewBox="0 0 1024 1024" version="1.1" xmlns="http://www.w3.org/2000/svg" p-id="11147" width="36" height="36" xmlns:xlink="http://www.w3.org/1999/xlink"><defs><style type="text/css"></style></defs><path d="M828.956815 830.873468C744.838999 914.9964 631.946836 961.321472 511.084141 961.321472c-120.866788 0-233.758951-46.325072-317.877791-130.448004C109.088534 746.754628 62.763462 633.863489 62.763462 513.000793c0-62.643736 13.476943-124.310214 40.053228-183.282327 25.464975-56.492642 62.630433-108.368126 107.489106-150.025898l0.358157-0.331551 0.344854-0.344854c6.04774-6.04774 16.054651-9.513678 27.459399-9.513678 14.288424 0 28.414143 5.531993 34.354436 13.458523 11.468193 15.283078 14.000875 41.151235-3.515057 59.501162-77.591169 64.110133-123.875309 165.125805-123.875309 270.539646 0 205.039863 160.610978 365.650841 365.650841 365.650841 205.034746 0 365.650841-160.610978 365.650841-365.650841 0-103.109356-43.62559-204.034976-116.729561-270.15386-8.90788-9.086959-14.610766-20.331048-15.672958-30.942733-1.013073-10.123568 2.125407-18.901489 9.329483-26.105564 10.355859-10.355859 23.115464-16.296151 35.000142-16.296151 8.612145 0 16.179494 3.200902 22.49227 9.513678l0.344854 0.344854 0.35918 0.331551c44.858674 41.657772 82.029248 93.533256 107.489106 150.025898C945.927877 388.689556 959.40482 450.356035 959.40482 513.000793 959.40482 633.863489 913.079748 746.754628 828.956815 830.873468zM511.084141 554.331108c-25.88146 0-41.335431-15.448854-41.335431-41.330314L469.74871 106.014522c0-25.885554 15.45397-41.335431 41.335431-41.335431 25.88146 0 41.335431 15.448854 41.335431 41.335431l0 406.985248C552.419572 538.882254 536.965601 554.331108 511.084141 554.331108z" p-id="11148" fill="#ffffff"></path></svg>