<?xml version="1.0" standalone="no"?><!DOCTYPE svg PUBLIC "-//W3C//DTD SVG 1.1//EN" "http://www.w3.org/Graphics/SVG/1.1/DTD/svg11.dtd"><svg t="1606887863317" class="icon" viewBox="0 0 1024 1024" version="1.1" xmlns="http://www.w3.org/2000/svg" p-id="2903" width="72" height="72" xmlns:xlink="http://www.w3.org/1999/xlink"><defs><style type="text/css"></style></defs><path d="M510.3 44.6c63.1 0 124.2 12.3 181.8 36.7 55.6 23.5 105.6 57.2 148.5 100.1s76.6 92.8 100.1 148.5c24.3 57.5 36.7 118.7 36.7 181.8s-12.3 124.2-36.7 181.8c-23.5 55.6-57.2 105.6-100.1 148.5s-93 76.4-148.6 99.9c-57.5 24.3-118.7 36.7-181.8 36.7S386 966.3 328.4 941.9c-55.6-23.5-105.6-57.2-148.5-100.1S103.5 748.9 80 693.3c-24.3-57.5-36.7-118.7-36.7-181.8S55.6 387.4 80 329.8c23.5-55.6 57.2-105.6 100.1-148.5s92.8-76.6 148.5-100.1c57.5-24.3 118.6-36.6 181.7-36.6m0-40c-280 0-507 227-507 507s227 507 507 507 507-227 507-507-227-507-507-507z" fill="#bfbfbf" p-id="2904"></path><path d="M510.3 771.6c-11 0-20-9-20-20v-480c0-11 9-20 20-20s20 9 20 20v480c0 11-9 20-20 20z" fill="#bfbfbf" p-id="2905"></path><path d="M770.3 511.6c0 11-9 20-20 20h-480c-11 0-20-9-20-20s9-20 20-20h480c11 0 20 9 20 20z" fill="#bfbfbf" p-id="2906"></path></svg>