<?xml version="1.0" standalone="no"?><!DOCTYPE svg PUBLIC "-//W3C//DTD SVG 1.1//EN" "http://www.w3.org/Graphics/SVG/1.1/DTD/svg11.dtd"><svg t="1607397105478" class="icon" viewBox="0 0 1024 1024" version="1.1" xmlns="http://www.w3.org/2000/svg" p-id="7050" width="72" height="72" xmlns:xlink="http://www.w3.org/1999/xlink"><defs><style type="text/css"></style></defs><path d="M704 512c58.88 0 106.24-47.786667 106.24-106.666667S762.88 298.666667 704 298.666667a106.666667 106.666667 0 0 0 0 213.333333zM384 469.333333c70.826667 0 127.573333-57.173333 127.573333-128S454.826667 213.333333 384 213.333333C313.173333 213.333333 256 270.506667 256 341.333333s57.173333 128 128 128z m320 128c-78.08 0-234.666667 39.253333-234.666667 117.333334V810.666667h469.333334v-96c0-78.08-156.586667-117.333333-234.666667-117.333334zM384 554.666667c-99.413333 0-298.666667 49.92-298.666667 149.333333V810.666667h298.666667v-96c0-36.266667 14.08-99.84 101.12-148.053334C448 558.933333 412.16 554.666667 384 554.666667z" p-id="7051" fill="#ffffff"></path></svg>