<?xml version="1.0" standalone="no"?><!DOCTYPE svg PUBLIC "-//W3C//DTD SVG 1.1//EN" "http://www.w3.org/Graphics/SVG/1.1/DTD/svg11.dtd"><svg t="1607412329319" class="icon" viewBox="0 0 1035 1024" version="1.1" xmlns="http://www.w3.org/2000/svg" p-id="9994" width="145.546875" height="144" xmlns:xlink="http://www.w3.org/1999/xlink"><defs><style type="text/css"></style></defs><path d="M612.737332 543.395034l27.303856 135.217634 53.791114-10.828626-43.445488-215.220736-215.22176 43.419905 10.855232 53.81772 119.853715-24.197098c-26.358321 42.490743-95.853092 122.450866-260.216533 163.970492-88.689948 22.38073-189.626825-11.631922-219.563648-54.890144C52.992935 586.92034 58.647725 524.900821 58.647725 524.900821l-54.890144 0c0 0-10.990309 96.300276 54.890144 164.67248 49.397037 51.300386 138.13815 79.467913 247.010767 54.890144C491.409033 702.524265 577.10274 602.49506 612.737332 543.395034zM566.388724 58.328453c-250.117524 0-452.875414 202.75789-452.875414 452.849832 0 11.437493 0.428765 22.774703 1.261737 33.999348l54.145178-13.537318c-0.342808-6.777357-0.51677-13.599739-0.51677-20.462031 0-219.803101 178.180122-397.959687 397.98527-397.959687 219.776496 0 397.931035 178.156586 397.931035 397.959687 0 219.806171-178.154539 397.959687-397.931035 397.959687-81.838913 0-157.904333-24.702612-221.153866-67.049069l-39.469943 39.469943c73.700559 51.951209 163.596985 82.46927 260.623809 82.46927 250.091942 0 452.849832-202.75789 452.849832-452.848809S816.479643 58.328453 566.388724 58.328453z" p-id="9995" fill="#8a8a8a"></path></svg>