<?xml version="1.0" standalone="no"?><!DOCTYPE svg PUBLIC "-//W3C//DTD SVG 1.1//EN" "http://www.w3.org/Graphics/SVG/1.1/DTD/svg11.dtd"><svg t="1605678255794" class="icon" viewBox="0 0 1024 1024" version="1.1" xmlns="http://www.w3.org/2000/svg" p-id="3738" xmlns:xlink="http://www.w3.org/1999/xlink" width="16" height="16"><defs><style type="text/css"></style></defs><path d="M170.666667 666.965333C170.666667 884.053333 290.872889 981.333333 458.609778 981.333333c106.552889 0 185.799111-35.214222 249.173333-102.144 88.064-92.899556 117.134222-234.666667 133.859556-289.706666 13.653333-44.032 38.314667-99.498667 38.314666-128.995556 0-18.944-25.116444-35.669333-41.813333-35.669333-37.888 0-52.423111 17.180444-74.439111 64.739555-24.632889 52.394667-54.584889 150.129778-78.364445 150.129778-13.653333 0-18.488889-24.661333-18.488888-70.456889V144.384c0-23.324444-14.08-44.487111-44.032-44.487111-29.496889 0-44.003556 21.134222-44.003556 44.487111v347.790222a329.301333 329.301333 0 0 0-48.014222-9.671111V86.698667c0-23.324444-14.506667-44.032-44.003556-44.032-29.525333 0-44.032 20.679111-44.032 44.032v392.732444c-16.298667 0.853333-32.142222 2.616889-47.985778 5.262222V120.604444c0-23.324444-14.990222-44.487111-44.032-44.487111-29.070222 0-44.032 21.134222-44.032 44.487111v388.750223c-17.180444 7.054222-33.479111 15.416889-47.985777 24.661333v-276.48c0-23.324444-13.653333-44.487111-43.150223-44.487111C185.173333 213.048889 170.666667 234.183111 170.666667 257.507556v409.457777z" fill="#ffffff" p-id="3739"></path></svg>