<svg width="24" height="24" viewBox="0 0 24 24" fill="none" xmlns="http://www.w3.org/2000/svg">
<path d="M12.3972 15.2836C14.1019 15.2836 15.482 13.9036 15.482 12.1989V7.08473C15.482 5.38001 14.1019 4 12.3972 4C10.6925 4 9.3125 5.38001 9.3125 7.08473V12.1989C9.35309 13.9036 10.6925 15.2836 12.3972 15.2836Z" fill="#95979B"/>
<path d="M17.1877 9.96704C16.863 9.96704 16.5789 10.2512 16.5789 10.5759V12.24C16.5789 14.5535 14.7118 16.4206 12.3983 16.4206C10.0847 16.4206 8.21766 14.5535 8.21766 12.24V10.4135C8.21766 10.0888 7.93354 9.80469 7.60883 9.80469C7.28412 9.80469 7 10.0888 7 10.4135V12.24C7 15 9.1106 17.3136 11.7894 17.5977V19.3916C11.7894 19.7278 12.062 20.0004 12.3983 20.0004C12.7345 20.0004 13.0071 19.7278 13.0071 19.3916V17.5977C15.686 17.3136 17.7966 15 17.7966 12.24V10.5759C17.7966 10.2106 17.5124 9.96704 17.1877 9.96704Z" fill="#95979B"/>
</svg>
