<?xml version="1.0" standalone="no"?><!DOCTYPE svg PUBLIC "-//W3C//DTD SVG 1.1//EN" "http://www.w3.org/Graphics/SVG/1.1/DTD/svg11.dtd"><svg t="1597206555606" class="icon" viewBox="0 0 1024 1024" version="1.1" xmlns="http://www.w3.org/2000/svg" p-id="2886" width="200" height="200" xmlns:xlink="http://www.w3.org/1999/xlink"><defs><style type="text/css"></style></defs><path d="M78.769231 630.153846m31.507692 0l94.523077 0q31.507692 0 31.507692 31.507692l0 173.292308q0 31.507692-31.507692 31.507692l-94.523077 0q-31.507692 0-31.507692-31.507692l0-173.292308q0-31.507692 31.507692-31.507692Z" fill="#1afa29" p-id="2887"></path><path d="M315.076923 472.615385m31.507692 0l94.523077 0q31.507692 0 31.507693 31.507692l0 330.830769q0 31.507692-31.507693 31.507692l-94.523077 0q-31.507692 0-31.507692-31.507692l0-330.830769q0-31.507692 31.507692-31.507692Z" fill="#1afa29" p-id="2888"></path><path d="M551.384615 315.076923m31.507693 0l94.523077 0q31.507692 0 31.507692 31.507692l0 488.369231q0 31.507692-31.507692 31.507692l-94.523077 0q-31.507692 0-31.507693-31.507692l0-488.369231q0-31.507692 31.507693-31.507692Z" fill="#1afa29" p-id="2889"></path><path d="M787.692308 157.538462m31.507692 0l94.523077 0q31.507692 0 31.507692 31.507692l0 645.907692q0 31.507692-31.507692 31.507692l-94.523077 0q-31.507692 0-31.507692-31.507692l0-645.907692q0-31.507692 31.507692-31.507692Z" fill="#1afa29" p-id="2890"></path></svg>