<?xml version="1.0" standalone="no"?><!DOCTYPE svg PUBLIC "-//W3C//DTD SVG 1.1//EN" "http://www.w3.org/Graphics/SVG/1.1/DTD/svg11.dtd"><svg t="1600673212918" class="icon" viewBox="0 0 1024 1024" version="1.1" xmlns="http://www.w3.org/2000/svg" p-id="9485" xmlns:xlink="http://www.w3.org/1999/xlink" width="16" height="16"><defs><style type="text/css"></style></defs><path d="M980.8 966.4 760 745.6c73.6-75.2 120-179.2 120-294.4C880 220.8 691.2 32 459.2 32 228.8 32 40 220.8 40 452.8c0 232 188.8 420.8 420.8 420.8 104 0 198.4-38.4 272-100.8l222.4 222.4L980.8 966.4zM76.8 452.8c0-211.2 171.2-382.4 382.4-382.4 211.2 0 382.4 171.2 382.4 382.4 0 211.2-171.2 382.4-382.4 382.4C248 835.2 76.8 662.4 76.8 452.8z" p-id="9486"></path></svg>