<?xml version="1.0" standalone="no"?><!DOCTYPE svg PUBLIC "-//W3C//DTD SVG 1.1//EN" "http://www.w3.org/Graphics/SVG/1.1/DTD/svg11.dtd"><svg t="1681726474006" class="icon" viewBox="0 0 1024 1024" version="1.1" xmlns="http://www.w3.org/2000/svg" p-id="3305" width="70" height="70" xmlns:xlink="http://www.w3.org/1999/xlink"><path d="M512 512m-365.714286 0a365.714286 365.714286 0 1 0 731.428572 0 365.714286 365.714286 0 1 0-731.428572 0Z" fill="#FFCE46" p-id="3306"></path><path d="M697.782857 479.817143c7.314286-1.462857 13.165714-8.777143 11.702857-17.554286-1.462857-7.314286-8.777143-13.165714-17.554285-11.702857-67.291429 11.702857-100.937143 43.885714-114.102858 61.44-4.388571 7.314286-2.925714 16.091429 4.388572 20.48 5.851429 4.388571 13.165714 2.925714 17.554286-1.462857 0 2.925714-1.462857 7.314286-1.462858 11.702857 0 24.868571 13.165714 45.348571 30.72 45.348571s30.72-20.48 30.72-45.348571c0-20.48-8.777143-38.034286-21.942857-43.885714 14.628571-7.314286 35.108571-14.628571 59.977143-19.017143zM326.217143 479.817143c-7.314286-1.462857-13.165714-8.777143-11.702857-17.554286 1.462857-7.314286 8.777143-13.165714 17.554285-11.702857 67.291429 11.702857 100.937143 43.885714 112.64 61.44 4.388571 7.314286 2.925714 16.091429-4.388571 20.48-5.851429 4.388571-13.165714 2.925714-17.554286-1.462857 0 2.925714 1.462857 7.314286 1.462857 10.24 0 24.868571-13.165714 45.348571-30.72 45.348571-16.091429 0-30.72-20.48-30.72-45.348571 0-20.48 8.777143-38.034286 21.942858-43.885714-14.628571-5.851429-33.645714-13.165714-58.514286-17.554286zM495.908571 675.84c-27.794286 4.388571-49.737143 19.017143-61.44 30.72-5.851429 5.851429-14.628571 5.851429-20.48 0-5.851429-5.851429-5.851429-14.628571 0-20.48 14.628571-14.628571 42.422857-33.645714 77.531429-38.034286 35.108571-5.851429 76.068571 2.925714 118.491429 38.034286 5.851429 5.851429 7.314286 14.628571 1.462857 20.48-5.851429 5.851429-14.628571 7.314286-20.48 1.462857-35.108571-32.182857-68.754286-36.571429-95.085715-32.182857z" p-id="3307"></path></svg>