<?xml version="1.0" standalone="no"?><!DOCTYPE svg PUBLIC "-//W3C//DTD SVG 1.1//EN" "http://www.w3.org/Graphics/SVG/1.1/DTD/svg11.dtd"><svg t="1681726562709" class="icon" viewBox="0 0 1024 1024" version="1.1" xmlns="http://www.w3.org/2000/svg" p-id="3700" width="70" height="70" xmlns:xlink="http://www.w3.org/1999/xlink"><path d="M512 512m-365.714286 0a365.714286 365.714286 0 1 0 731.428572 0 365.714286 365.714286 0 1 0-731.428572 0Z" fill="#FFCE46" p-id="3701"></path><path d="M365.714286 411.062857a45.348571 30.72 90 1 0 61.44 0 45.348571 30.72 90 1 0-61.44 0Z" p-id="3702"></path><path d="M599.771429 411.062857a45.348571 30.72 90 1 0 61.44 0 45.348571 30.72 90 1 0-61.44 0Z" p-id="3703"></path><path d="M513.462857 652.434286c-64.365714 0-124.342857-26.331429-172.617143-74.605715-5.851429-5.851429-5.851429-14.628571 0-20.48 5.851429-5.851429 14.628571-5.851429 20.48 0 62.902857 64.365714 133.12 70.217143 181.394286 62.902858 57.051429-7.314286 103.862857-36.571429 117.028571-59.977143 4.388571-7.314286 13.165714-10.24 20.48-5.851429 7.314286 4.388571 10.24 13.165714 5.851429 20.48-16.091429 30.72-68.754286 65.828571-138.971429 74.605714-11.702857 2.925714-23.405714 2.925714-33.645714 2.925715z" p-id="3704"></path></svg>