<?xml version="1.0" standalone="no"?><!DOCTYPE svg PUBLIC "-//W3C//DTD SVG 1.1//EN" "http://www.w3.org/Graphics/SVG/1.1/DTD/svg11.dtd"><svg t="1681726618370" class="icon" viewBox="0 0 1024 1024" version="1.1" xmlns="http://www.w3.org/2000/svg" p-id="4097" width="70" height="70" xmlns:xlink="http://www.w3.org/1999/xlink"><path d="M512 512m-365.714286 0a365.714286 365.714286 0 1 0 731.428572 0 365.714286 365.714286 0 1 0-731.428572 0Z" fill="#FFCE46" p-id="4098"></path><path d="M365.714286 411.062857a45.348571 30.72 90 1 0 61.44 0 45.348571 30.72 90 1 0-61.44 0Z" p-id="4099"></path><path d="M599.771429 411.062857a45.348571 30.72 90 1 0 61.44 0 45.348571 30.72 90 1 0-61.44 0Z" p-id="4100"></path><path d="M672.914286 650.971429c-2.925714 0-7.314286-1.462857-8.777143-2.925715-136.045714-114.102857-257.462857-51.2-301.348572-1.462857-5.851429 5.851429-14.628571 5.851429-20.48 1.462857-5.851429-5.851429-5.851429-14.628571-1.462857-20.48 51.2-57.051429 188.708571-130.194286 342.308572-1.462857 5.851429 5.851429 7.314286 14.628571 1.462857 20.48-2.925714 2.925714-7.314286 4.388571-11.702857 4.388572z" p-id="4101"></path></svg>