<?xml version="1.0" standalone="no"?><!DOCTYPE svg PUBLIC "-//W3C//DTD SVG 1.1//EN" "http://www.w3.org/Graphics/SVG/1.1/DTD/svg11.dtd"><svg t="1681726571866" class="icon" viewBox="0 0 1024 1024" version="1.1" xmlns="http://www.w3.org/2000/svg" p-id="3898" width="70" height="70" xmlns:xlink="http://www.w3.org/1999/xlink"><path d="M512 512m-365.714286 0a365.714286 365.714286 0 1 0 731.428572 0 365.714286 365.714286 0 1 0-731.428572 0Z" fill="#FFCE46" p-id="3899"></path><path d="M702.171429 409.6c-8.777143 0-14.628571-5.851429-14.628572-14.628571 0-16.091429-13.165714-29.257143-29.257143-29.257143s-29.257143 13.165714-29.257143 29.257143c0 8.777143-5.851429 14.628571-14.628571 14.628571s-14.628571-5.851429-14.628571-14.628571c0-32.182857 26.331429-58.514286 58.514285-58.514286s58.514286 26.331429 58.514286 58.514286c0 8.777143-5.851429 14.628571-14.628571 14.628571zM409.6 409.6c-8.777143 0-14.628571-5.851429-14.628571-14.628571 0-16.091429-13.165714-29.257143-29.257143-29.257143s-29.257143 13.165714-29.257143 29.257143c0 8.777143-5.851429 14.628571-14.628572 14.628571s-14.628571-5.851429-14.628571-14.628571c0-32.182857 26.331429-58.514286 58.514286-58.514286s58.514286 26.331429 58.514285 58.514286c0 8.777143-5.851429 14.628571-14.628571 14.628571z" p-id="3900"></path><path d="M277.942857 497.371429m-87.771428 0a87.771429 87.771429 0 1 0 175.542857 0 87.771429 87.771429 0 1 0-175.542857 0Z" fill="#FFA135" p-id="3901"></path><path d="M746.057143 497.371429m-87.771429 0a87.771429 87.771429 0 1 0 175.542857 0 87.771429 87.771429 0 1 0-175.542857 0Z" fill="#FFA135" p-id="3902"></path><path d="M513.462857 639.268571h-4.388571c-76.068571-1.462857-141.897143-51.2-177.005715-96.548571-4.388571-5.851429-4.388571-16.091429 2.925715-20.48 5.851429-4.388571 16.091429-4.388571 20.48 2.925714 32.182857 39.497143 89.234286 83.382857 155.062857 84.845715 55.588571 1.462857 109.714286-27.794286 159.451428-84.845715 5.851429-5.851429 14.628571-7.314286 20.48-1.462857 5.851429 5.851429 7.314286 14.628571 1.462858 20.48-55.588571 62.902857-114.102857 95.085714-178.468572 95.085714z" p-id="3903"></path></svg>