<?xml version="1.0" standalone="no"?><!DOCTYPE svg PUBLIC "-//W3C//DTD SVG 1.1//EN" "http://www.w3.org/Graphics/SVG/1.1/DTD/svg11.dtd"><svg t="1681726526520" class="icon" viewBox="0 0 1024 1024" version="1.1" xmlns="http://www.w3.org/2000/svg" p-id="3501" width="70" height="70" xmlns:xlink="http://www.w3.org/1999/xlink"><path d="M512 512m-365.714286 0a365.714286 365.714286 0 1 0 731.428572 0 365.714286 365.714286 0 1 0-731.428572 0Z" fill="#FFCE46" p-id="3502"></path><path d="M842.605714 340.845714c-26.331429 99.474286-197.485714 136.045714-197.485714 136.045715s-133.12-114.102857-106.788571-215.04c11.702857-43.885714 57.051429-71.68 100.937142-59.977143 30.72 7.314286 52.662857 30.72 59.977143 58.514285 0 1.462857 1.462857 1.462857 1.462857 0 20.48-20.48 51.2-30.72 80.457143-21.942857 46.811429 13.165714 73.142857 58.514286 61.44 102.4zM478.354286 270.628571c16.091429 102.4-125.805714 204.8-125.805715 204.8S185.782857 424.228571 168.228571 321.828571c-7.314286-45.348571 23.405714-87.771429 68.754286-95.085714 30.72-4.388571 59.977143 7.314286 78.994286 29.257143h1.462857c10.24-27.794286 33.645714-48.274286 64.365714-54.125714 46.811429-7.314286 89.234286 23.405714 96.548572 68.754285z" fill="#F73131" p-id="3503"></path><path d="M789.942857 548.571429c-197.485714-58.514286-446.171429-43.885714-555.885714 0 2.925714 73.142857 61.44 219.428571 277.942857 219.428571s275.017143-146.285714 277.942857-219.428571z" p-id="3504"></path><path d="M339.382857 724.114286c40.96 26.331429 98.011429 43.885714 172.617143 43.885714 73.142857 0 128.731429-17.554286 169.691429-42.422857-133.12-55.588571-267.702857-30.72-342.308572-1.462857z" fill="#F73131" p-id="3505"></path><path d="M279.405714 533.942857c93.622857 16.091429 270.628571 30.72 454.948572 0-162.377143-35.108571-345.234286-27.794286-454.948572 0z" fill="#FFFFFF" p-id="3506"></path></svg>