<?xml version="1.0" standalone="no"?><!DOCTYPE svg PUBLIC "-//W3C//DTD SVG 1.1//EN" "http://www.w3.org/Graphics/SVG/1.1/DTD/svg11.dtd"><svg t="1604470512758" class="icon" viewBox="0 0 1024 1024" version="1.1" xmlns="http://www.w3.org/2000/svg" p-id="9693" width="21" height="21" xmlns:xlink="http://www.w3.org/1999/xlink"><defs><style type="text/css"></style></defs><path d="M182.857143 329.142857q0 14.857143-10.857143 25.714286t-25.714286 10.857143q-15.428571 0-26-10.857143T109.714286 329.142857q0-15.428571 10.571428-26T146.285714 292.571429q14.857143 0 25.714286 10.571428t10.857143 26z m91.428571 292.571429V256q0-14.857143-10.857143-25.714286t-25.714285-10.857143H73.142857q-14.857143 0-25.714286 10.857143T36.571429 256v365.714286q0 14.857143 10.857142 25.714285t25.714286 10.857143h164.571429q14.857143 0 25.714285-10.857143t10.857143-25.714285z m645.142857-85.142857q31.428571 34.857143 31.428572 85.142857-0.571429 44.571429-32.857143 77.142857t-76.857143 32.571428h-158.285714q2.285714 8 4.571428 13.714286t6.285715 12.571429 5.714285 10.285714q10.285714 21.142857 15.428572 32.571429t10.857143 33.428571 5.714285 43.714286q0 13.714286-0.285714 22.285714t-2.857143 25.714286-6.857143 28.571428-13.714285 25.714286-22.857143 23.142857-34.285714 14.857143T603.428571 1024q-14.857143 0-25.714285-10.857143-11.428571-11.428571-19.428572-28.571428t-11.142857-29.714286-7.142857-34.857143q-5.142857-24-7.714286-34.571429T522.285714 857.714286t-17.714285-27.428572q-18.857143-18.857143-57.714286-68.571428-28-36.571429-57.714286-69.142857t-43.428571-33.714286q-14.285714-1.142857-24.571429-11.714286t-10.285714-24.857143V256q0-14.857143 10.857143-25.428571t25.714285-11.142858q20-0.571429 90.285715-25.142857 44-14.857143 68.857143-22.571428t69.428571-16.571429 82.285714-8.857143h73.714286q76 1.142857 112.571429 44.571429 33.142857 39.428571 28 103.428571 22.285714 21.142857 30.857142 53.714286 9.714286 34.857143 0 66.857143 26.285714 34.857143 24.571429 78.285714 0 18.285714-8.571429 43.428572z" p-id="9694" fill="#CCCCCC"></path></svg>