<?xml version="1.0" standalone="no"?><!DOCTYPE svg PUBLIC "-//W3C//DTD SVG 1.1//EN" "http://www.w3.org/Graphics/SVG/1.1/DTD/svg11.dtd"><svg t="1604470657309" class="icon" viewBox="0 0 1024 1024" version="1.1" xmlns="http://www.w3.org/2000/svg" p-id="10781" width="24" height="24" xmlns:xlink="http://www.w3.org/1999/xlink"><defs><style type="text/css"></style></defs><path d="M512 0C229.248 0 0 229.216 0 512s229.216 512 512 512 512-229.216 512-512S794.784 0 512 0z m0 960C264.576 960 64 759.456 64 512S264.576 64 512 64c247.456 0 448 200.576 448 448s-200.544 448-448 448z m-144-496a80 80 0 1 1-160 0 80 80 0 0 1 160 0z m448 0a80 80 0 1 1-160 0 80 80 0 0 1 160 0zM512 864c-192 0-240-176-240-192s14.336-32 32-32h416c17.664 0 32 16 32 32S704 864 512 864z" p-id="10782" fill="#F29900"></path></svg>