<?xml version="1.0" standalone="no"?><!DOCTYPE svg PUBLIC "-//W3C//DTD SVG 1.1//EN" "http://www.w3.org/Graphics/SVG/1.1/DTD/svg11.dtd"><svg t="1604470490696" class="icon" viewBox="0 0 1024 1024" version="1.1" xmlns="http://www.w3.org/2000/svg" p-id="9308" width="21" height="21" xmlns:xlink="http://www.w3.org/1999/xlink"><defs><style type="text/css"></style></defs><path d="M182.857143 768q0-14.857143-10.857143-25.714286t-25.714286-10.857143q-15.428571 0-26 10.857143t-10.571428 25.714286q0 15.428571 10.571428 26T146.285714 804.571429q14.857143 0 25.714286-10.571429t10.857143-26z m91.428571-292.571429v365.714286q0 14.857143-10.857143 25.714286t-25.714285 10.857143H73.142857q-14.857143 0-25.714286-10.857143t-10.857142-25.714286V475.428571q0-14.857143 10.857142-25.714285t25.714286-10.857143h164.571429q14.857143 0 25.714285 10.857143t10.857143 25.714285z m676.571429 0q0 49.142857-31.428572 85.142858 8.571429 25.142857 8.571429 43.428571 1.714286 43.428571-24.571429 78.285714 9.714286 32 0 66.857143-8.571429 32.571429-30.857142 53.714286 5.142857 64-28 103.428571-36.571429 43.428571-112.571429 44.571429h-73.714286q-37.714286 0-82.285714-8.857143t-69.428571-16.571429T437.714286 902.857143q-70.285714-24.571429-90.285715-25.142857-14.857143-0.571429-25.714285-11.142857t-10.857143-25.428572V474.857143q0-14.285714 10.285714-24.857143t24.571429-11.714286q13.714286-1.142857 43.428571-33.714285t57.714286-69.142858q38.857143-49.714286 57.714286-68.571428 10.285714-10.285714 17.714285-27.428572t10-27.714285T540 177.142857q4-22.285714 7.142857-34.857143t11.142857-29.714285 19.428572-28.571429q10.857143-10.857143 25.714285-10.857143 26.285714 0 47.142858 6t34.285714 14.857143 22.857143 23.142857 13.714285 25.714286 6.857143 28.571428 2.857143 25.714286 0.285714 22.285714q0 21.714286-5.428571 43.428572t-10.857143 34.285714-15.714286 32q-1.714286 3.428571-5.714285 10.285714t-6.285715 12.571429-4.571428 13.714286h158.285714q44.571429 0 77.142857 32.571428t32.571429 77.142857z" p-id="9309" fill="#CCCCCC"></path></svg>