<?xml version="1.0" standalone="no"?><!DOCTYPE svg PUBLIC "-//W3C//DTD SVG 1.1//EN" "http://www.w3.org/Graphics/SVG/1.1/DTD/svg11.dtd"><svg t="1577778178634" class="icon" viewBox="0 0 1024 1024" version="1.1" xmlns="http://www.w3.org/2000/svg" p-id="1116" width="20" height="20" xmlns:xlink="http://www.w3.org/1999/xlink"><defs><style type="text/css"></style></defs><path d="M800.340285 488.392563L322.193544 10.267384C315.351017 3.432045 307.477079 0 298.5897 0c-8.890973 0-16.761316 3.432045-23.60025 10.267384L223.695653 61.571963c-6.849715 6.838933-10.260197 14.694902-10.260197 23.60025 0 8.905348 3.410482 16.761316 10.260197 23.60025l403.234725 403.234725L223.695653 915.2491c-6.849715 6.838933-10.260197 14.709277-10.260197 23.589468 0 8.901754 3.410482 16.772098 10.260197 23.611032l51.297391 51.286609c6.838933 6.846121 14.709277 10.256603 23.60025 10.256603 8.887379 0 16.757723-3.41767 23.60025-10.256603l478.121584-478.128772c6.83534-6.83534 10.256603-14.709277 10.256603-23.600249s-3.396107-16.761316-10.231446-23.614625z" p-id="1117" fill="#ffffff"></path></svg>