<?xml version="1.0" standalone="no"?><!DOCTYPE svg PUBLIC "-//W3C//DTD SVG 1.1//EN" "http://www.w3.org/Graphics/SVG/1.1/DTD/svg11.dtd"><svg t="1577697631056" class="icon" viewBox="0 0 1024 1024" version="1.1" xmlns="http://www.w3.org/2000/svg" p-id="2782" width="17" height="17" xmlns:xlink="http://www.w3.org/1999/xlink"><defs><style type="text/css"></style></defs><path d="M511.90437205 46.17269097c-257.16949114 0-465.64723188 208.47649921-465.64723188 465.64723188s208.47774075 465.64723188 465.64723188 465.64723189S977.5503624 768.98941398 977.5503624 511.81992285 769.07386319 46.17269097 511.90437205 46.17269097zM694.77879959 694.69434917c-10.10297636 10.10297636-26.62044163 9.96388227-36.43405227 0.15027163L511.85469577 548.35581201 365.36588698 694.8446208c-10.01976749 10.01976749-26.26152889 10.02349332-36.43529384-0.15027163-10.10297636-10.10297636-9.96388227-26.62044163-0.15027161-36.43405227L475.27037186 511.77024534 328.78156307 365.2826781c-10.01976749-10.01976749-10.02349332-26.26152889 0.15027162-36.43529383 10.10297636-10.10297636 26.62044163-9.96388227 36.43529383-0.15027162l146.48880879 146.48880879 146.48880879-146.48880879c10.01976749-10.01976749 26.26152889-10.02349332 36.43405229 0.15027162 10.10297636 10.10297636 9.96388227 26.62044163 0.15027162 36.43529383L548.44026122 511.77024534 694.92782846 658.25905535C704.94759716 668.27882284 704.951323 684.52058422 694.77879959 694.69434917z" p-id="2783" fill="#8a8a8a"></path></svg>