<svg width="53" height="54" viewBox="0 0 53 54" fill="none" xmlns="http://www.w3.org/2000/svg">
<circle cx="26.5" cy="27" r="26" fill="white" fill-opacity="0.05" stroke="white" stroke-width="0.866667"/>
<rect opacity="0.01" x="14.3667" y="14.8667" width="24.2667" height="24.2667" fill="#D8D8D8"/>
<path fill-rule="evenodd" clip-rule="evenodd" d="M26.0967 31.1476C26.0967 31.1476 27.6617 32.341 28.8584 31.6066C31.3439 30.1378 31.2518 29.587 32.4486 30.2296C36.6832 32.6164 36.499 34.177 36.407 34.5442C35.9467 36.1048 33.185 37.2983 30.2392 36.5638C27.2014 35.8294 24.1635 34.177 21.7701 31.7902C19.3766 29.3116 17.7196 26.3739 16.9832 23.3445C16.1546 20.315 17.4434 17.561 18.9163 17.102C19.2846 17.0102 20.8495 16.8266 23.243 21.0495C23.8874 22.2429 23.4271 22.2429 21.8621 24.6297C21.1257 25.8231 22.3224 27.3837 22.3224 27.3837C22.3224 27.3837 23.1509 28.6689 23.9794 29.4952C24.9 30.4132 26.0967 31.1476 26.0967 31.1476Z" fill="white"/>
<mask id="mask0_4548_13846" style="mask-type:luminance" maskUnits="userSpaceOnUse" x="16" y="17" width="21" height="20">
<path fill-rule="evenodd" clip-rule="evenodd" d="M26.0967 31.1476C26.0967 31.1476 27.6617 32.341 28.8584 31.6066C31.3439 30.1378 31.2518 29.587 32.4486 30.2296C36.6832 32.6164 36.499 34.177 36.407 34.5442C35.9467 36.1048 33.185 37.2983 30.2392 36.5638C27.2014 35.8294 24.1635 34.177 21.7701 31.7902C19.3766 29.3116 17.7196 26.3739 16.9832 23.3445C16.1546 20.315 17.4434 17.561 18.9163 17.102C19.2846 17.0102 20.8495 16.8266 23.243 21.0495C23.8874 22.2429 23.4271 22.2429 21.8621 24.6297C21.1257 25.8231 22.3224 27.3837 22.3224 27.3837C22.3224 27.3837 23.1509 28.6689 23.9794 29.4952C24.9 30.4132 26.0967 31.1476 26.0967 31.1476Z" fill="white"/>
</mask>
<g mask="url(#mask0_4548_13846)">
</g>
</svg>
