<svg width="24" height="24" viewBox="0 0 24 24" fill="none" xmlns="http://www.w3.org/2000/svg">
<path d="M12 11.88L16.32 7.56C16.6293 7.25072 17.1307 7.25072 17.44 7.56C17.7493 7.86928 17.7493 8.37072 17.44 8.68L12.7742 13.3458C12.3466 13.7734 11.6534 13.7734 11.2258 13.3458L6.56 8.68C6.25072 8.37072 6.25072 7.86928 6.56 7.56C6.86928 7.25072 7.37072 7.25072 7.68 7.56L12 11.88ZM17.2 14.92C17.6418 14.92 18 15.2782 18 15.72C18 16.1618 17.6418 16.52 17.2 16.52L6.8 16.52C6.35817 16.52 6 16.1618 6 15.72C6 15.2782 6.35817 14.92 6.8 14.92L17.2 14.92Z" fill="white"/>
</svg>
