<svg width="24" height="24" viewBox="0 0 24 24" fill="none" xmlns="http://www.w3.org/2000/svg">
<path d="M12 12.12L16.32 16.44C16.6293 16.7493 17.1307 16.7493 17.44 16.44C17.7493 16.1307 17.7493 15.6293 17.44 15.32L12.7742 10.6542C12.3466 10.2266 11.6534 10.2266 11.2258 10.6542L6.56 15.32C6.25072 15.6293 6.25072 16.1307 6.56 16.44C6.86928 16.7493 7.37072 16.7493 7.68 16.44L12 12.12ZM17.2 9.08C17.6418 9.08 18 8.72183 18 8.28C18 7.83817 17.6418 7.48 17.2 7.48L6.8 7.48C6.35817 7.48 6 7.83817 6 8.28C6 8.72183 6.35817 9.08 6.8 9.08L17.2 9.08Z" fill="white"/>
</svg>
