<?xml version="1.0" standalone="no"?><!DOCTYPE svg PUBLIC "-//W3C//DTD SVG 1.1//EN" "http://www.w3.org/Graphics/SVG/1.1/DTD/svg11.dtd"><svg t="1577777633015" class="icon" viewBox="0 0 1024 1024" version="1.1" xmlns="http://www.w3.org/2000/svg" p-id="1242" width="20" height="20" xmlns:xlink="http://www.w3.org/1999/xlink"><defs><style type="text/css"></style></defs><path d="M210.051282 511.921101c0 18.300357 7.246626 36.574457 21.739879 50.752639L687.278373 1002.985047a75.984551 75.984551 0 0 0 104.918544 0c13.915623-13.469273 21.739878-31.717117 21.739878-50.778895 0-19.035522-7.824256-37.283366-21.739878-50.752639L389.090209 511.921101 792.196917 122.388689a70.549581 70.549581 0 0 0 21.66111-50.673871c0-19.009266-7.798-37.230855-21.66111-50.673871a75.984551 75.984551 0 0 0-104.918544 0L231.791161 461.325997A70.287023 70.287023 0 0 0 210.051282 511.921101z" p-id="1243" fill="#ffffff"></path></svg>