<svg width="40" height="40" viewBox="0 0 40 40" fill="none" xmlns="http://www.w3.org/2000/svg">
<path fill-rule="evenodd" clip-rule="evenodd" d="M7.52 0H23.8L36 12.3333V36.4444C36 38.4081 34.424 40 32.48 40H7.52C5.57596 40 4 38.4081 4 36.4444V3.55556C4 1.59188 5.57596 0 7.52 0Z" fill="#5C67E6"/>
<path d="M22.944 17.0661L12.8993 18.5041C12.8668 18.5085 12.8364 18.5167 12.8069 18.5264H12.444C12.1966 18.5264 12 18.696 12 18.905V28.7451C11.6081 28.5509 11.1523 28.4401 10.6667 28.4401C9.194 28.4401 8 29.4607 8 30.7201C8 31.9794 9.194 33 10.6667 33C12.1393 33 13.3334 31.9794 13.3334 30.72C13.3334 30.6278 13.3268 30.537 13.3147 30.4485C13.3268 30.4136 13.3334 30.3771 13.3334 30.3384V22.3358L22.6667 20.9254V26.4643C22.2748 26.2709 21.819 26.1593 21.3333 26.1593C19.8607 26.1593 18.6667 27.1806 18.6667 28.44C18.6667 29.6987 19.8607 30.72 21.3333 30.72C22.806 30.72 24 29.6987 24 28.44C24 28.3478 23.9935 28.257 23.9813 28.1678C23.9935 28.1328 24 28.0963 24 28.0577V17.418C24 17.232 23.8425 17.0765 23.635 17.0453C23.5625 17.0066 23.4714 16.991 23.3711 17.0051L23.135 17.0393H23.1107C23.0517 17.0394 22.9952 17.049 22.944 17.0661Z" fill="white"/>
<path fill-rule="evenodd" clip-rule="evenodd" d="M23.8 0L36 12.3333H27.32C25.3759 12.3333 23.8 10.7415 23.8 8.77778V0Z" fill="#B1BDFC"/>
</svg>
