<svg width="40" height="40" viewBox="0 0 40 40" fill="none" xmlns="http://www.w3.org/2000/svg">
<path fill-rule="evenodd" clip-rule="evenodd" d="M7.52 0H23.8L36 12.3333V36.4444C36 38.4081 34.424 40 32.48 40H7.52C5.57596 40 4 38.4081 4 36.4444V3.55556C4 1.59188 5.57596 0 7.52 0Z" fill="#08A664"/>
<path fill-rule="evenodd" clip-rule="evenodd" d="M23.8 0L36 12.3333H27.32C25.3759 12.3333 23.8 10.7415 23.8 8.77778V0Z" fill="#72D3A6"/>
<path d="M17.7495 24.6458L22.0318 31.3203H19.5173L16.5301 26.6224L13.5051 31.3203H11L15.2634 24.6363L11.0284 18H13.5051L16.5112 22.6979L19.5173 18H22.0318L17.7495 24.6458Z" fill="white"/>
</svg>
