<svg width="40" height="40" viewBox="0 0 40 40" fill="none" xmlns="http://www.w3.org/2000/svg">
<path fill-rule="evenodd" clip-rule="evenodd" d="M7.52 0H23.8L36 12.3333V36.4444C36 38.4081 34.424 40 32.48 40H7.52C5.57596 40 4 38.4081 4 36.4444V3.55556C4 1.59188 5.57596 0 7.52 0Z" fill="#22B5E6"/>
<mask id="path-2-inside-1_3403_11512" fill="white">
<path d="M9 19C9 18.4477 9.44772 18 10 18H26C26.5523 18 27 18.4477 27 19V31C27 31.5523 26.5523 32 26 32H10C9.44772 32 9 31.5523 9 31V19Z"/>
</mask>
<path d="M9 19C9 18.4477 9.44772 18 10 18H26C26.5523 18 27 18.4477 27 19V31C27 31.5523 26.5523 32 26 32H10C9.44772 32 9 31.5523 9 31V19Z" fill="white"/>
<path d="M10 19.5H26V16.5H10V19.5ZM25.5 19V31H28.5V19H25.5ZM26 30.5H10V33.5H26V30.5ZM10.5 31V19H7.5V31H10.5ZM10 30.5C10.2761 30.5 10.5 30.7239 10.5 31H7.5C7.5 32.3807 8.61929 33.5 10 33.5V30.5ZM25.5 31C25.5 30.7239 25.7239 30.5 26 30.5V33.5C27.3807 33.5 28.5 32.3807 28.5 31H25.5ZM26 19.5C25.7239 19.5 25.5 19.2761 25.5 19H28.5C28.5 17.6193 27.3807 16.5 26 16.5V19.5ZM10 16.5C8.61929 16.5 7.5 17.6193 7.5 19H10.5C10.5 19.2761 10.2761 19.5 10 19.5V16.5Z" fill="white" mask="url(#path-2-inside-1_3403_11512)"/>
<path fill-rule="evenodd" clip-rule="evenodd" d="M23.8 0L36 12.3333H27.32C25.376 12.3333 23.8 10.7415 23.8 8.77778V0Z" fill="#99DDFF"/>
<path fill-rule="evenodd" clip-rule="evenodd" d="M12.5 30.4063C12.0468 30.4063 11.8274 29.8517 12.1579 29.5416L15.1055 26.7768C15.4273 26.475 15.9089 26.4197 16.2907 26.6407L18.6488 28.0061C19.0411 28.2332 19.537 28.1681 19.8574 27.8474L24.553 23.1466C24.8679 22.8314 25.4068 23.0544 25.4068 23.5V29.9063C25.4068 30.1825 25.1829 30.4063 24.9068 30.4063H12.5Z" fill="#22B5E6"/>
<circle cx="13.5" cy="22.5" r="1.5" fill="#22B5E6"/>
</svg>
