<svg width="40" height="40" viewBox="0 0 40 40" fill="none" xmlns="http://www.w3.org/2000/svg">
<path fill-rule="evenodd" clip-rule="evenodd" d="M7.52 0H23.8L36 12.3333V36.4444C36 38.4081 34.424 40 32.48 40H7.52C5.57596 40 4 38.4081 4 36.4444V3.55556C4 1.59188 5.57596 0 7.52 0Z" fill="#E64D2E"/>
<path fill-rule="evenodd" clip-rule="evenodd" d="M23.8 0L36 12.3333H27.32C25.3759 12.3333 23.8 10.7415 23.8 8.77778V0Z" fill="#FC998A"/>
<path fill-rule="evenodd" clip-rule="evenodd" d="M17.7586 18.0131H12.5405V31.3334H14.7714V25.9766H17.7586C18.4329 25.9766 19.0316 25.8636 19.5547 25.6376C20.0778 25.4116 20.5189 25.1125 20.8781 24.7401C21.2373 24.3677 21.5099 23.9412 21.6958 23.4605C21.8817 22.9799 21.9747 22.4882 21.9747 21.9853C21.9747 21.5079 21.8817 21.0336 21.6958 20.5625C21.5099 20.0915 21.2389 19.6666 20.8828 19.2878C20.5268 18.909 20.0872 18.6019 19.5641 18.3664C19.0411 18.1308 18.4392 18.0131 17.7586 18.0131ZM17.2859 24.086H14.7714V19.9132H17.2859C17.683 19.9132 18.0343 19.9642 18.34 20.066C18.6456 20.1679 18.9024 20.3095 19.1104 20.4909C19.3184 20.6724 19.4759 20.8888 19.583 21.1402C19.6902 21.3917 19.7437 21.6638 19.7437 21.9566C19.7437 22.2558 19.7012 22.5343 19.6161 22.7921C19.5311 23.05 19.3924 23.2743 19.2002 23.4653C19.008 23.6563 18.7559 23.8075 18.4439 23.9189C18.132 24.0303 17.746 24.086 17.2859 24.086Z" fill="white"/>
</svg>
