<svg width="40" height="40" viewBox="0 0 40 40" fill="none" xmlns="http://www.w3.org/2000/svg">
<path fill-rule="evenodd" clip-rule="evenodd" d="M7.52 0H23.8L36 12.3333V36.4444C36 38.4081 34.424 40 32.48 40H7.52C5.57596 40 4 38.4081 4 36.4444V3.55556C4 1.59188 5.57596 0 7.52 0Z" fill="#BBBBBF"/>
<path fill-rule="evenodd" clip-rule="evenodd" d="M10 20C10 19.4477 10.4477 19 11 19H24C24.5523 19 25 19.4477 25 20C25 20.5523 24.5523 21 24 21H11C10.4477 21 10 20.5523 10 20ZM10 25C10 24.4477 10.4477 24 11 24H24C24.5523 24 25 24.4477 25 25C25 25.5523 24.5523 26 24 26H11C10.4477 26 10 25.5523 10 25ZM11 29C10.4477 29 10 29.4477 10 30C10 30.5523 10.4477 31 11 31H18C18.5523 31 19 30.5523 19 30C19 29.4477 18.5523 29 18 29H11Z" fill="white"/>
<path fill-rule="evenodd" clip-rule="evenodd" d="M23.8 0L36 12.3333H27.32C25.3759 12.3333 23.8 10.7415 23.8 8.77778V0Z" fill="#E8E9ED"/>
</svg>
