<svg width="40" height="40" viewBox="0 0 40 40" fill="none" xmlns="http://www.w3.org/2000/svg">
<path fill-rule="evenodd" clip-rule="evenodd" d="M7.52 0H23.8L36 12.3333V36.4444C36 38.4081 34.424 40 32.48 40H7.52C5.57596 40 4 38.4081 4 36.4444V3.55556C4 1.59188 5.57596 0 7.52 0Z" fill="#BBBBBF"/>
<path fill-rule="evenodd" clip-rule="evenodd" d="M12.7871 17.9483C13.6981 17.0939 14.9148 16.6666 16.457 16.6666C17.8447 16.6666 18.9762 17.0296 19.8302 17.7981C20.6841 18.5453 21.1111 19.5701 21.1111 20.8724C21.1111 21.9398 20.8336 22.8151 20.3212 23.4983C20.1572 23.6805 19.682 24.1272 18.9089 24.8119L18.4852 25.1848C18.1009 25.5051 17.8234 25.868 17.6312 26.2523C17.4177 26.6792 17.311 27.1276 17.311 27.6399V27.9388H14.8559V27.6399C14.8559 26.8287 14.984 26.1242 15.2829 25.5478L15.3017 25.5097C15.5968 24.9322 16.4232 24.0478 17.7807 22.8364L18.0369 22.5376C18.4211 22.0679 18.6133 21.5555 18.6133 21.0218C18.6133 20.3173 18.3998 19.7622 18.0155 19.3566C17.6099 18.951 17.0335 18.7588 16.3076 18.7588C15.3682 18.7588 14.7064 19.0363 14.3008 19.6341C13.9379 20.1251 13.7671 20.8297 13.7671 21.7263H11.3333C11.3333 20.1465 11.7816 18.9083 12.721 18.0116L12.7871 17.9483ZM17.2101 30.0371C16.9209 29.76 16.5545 29.6214 16.1303 29.6214C15.7061 29.6214 15.359 29.76 15.0697 30.0371C14.7805 30.3142 14.6455 30.6705 14.6455 31.106C14.6455 31.5414 14.7805 31.8977 15.0697 32.1748C15.359 32.4519 15.7061 32.6103 16.1303 32.6103C16.5545 32.6103 16.9016 32.4717 17.1908 32.1946C17.4801 31.9175 17.6344 31.5414 17.6344 31.106C17.6344 30.6705 17.4801 30.3142 17.2101 30.0371Z" fill="white"/>
<path fill-rule="evenodd" clip-rule="evenodd" d="M23.8 0L36 12.3333H27.32C25.3759 12.3333 23.8 10.7415 23.8 8.77778V0Z" fill="#E8E9ED"/>
</svg>
