<svg width="40" height="40" viewBox="0 0 40 40" fill="none" xmlns="http://www.w3.org/2000/svg">
<path fill-rule="evenodd" clip-rule="evenodd" d="M7.52 0H23.8L36 12.3333V36.4444C36 38.4081 34.424 40 32.48 40H7.52C5.57596 40 4 38.4081 4 36.4444V3.55556C4 1.59188 5.57596 0 7.52 0Z" fill="#2294E6"/>
<mask id="path-2-inside-1_3148_11502" fill="white">
<path fill-rule="evenodd" clip-rule="evenodd" d="M10 18C9.44772 18 9 18.4477 9 19V31C9 31.5523 9.44772 32 10 32H26C26.5523 32 27 31.5523 27 31V19C27 18.4477 26.5523 18 26 18H10ZM20.9213 24.7037L15.603 22.0445C15.326 21.906 15 22.1075 15 22.4172V27.7355C15 28.0453 15.326 28.2467 15.603 28.1082L20.9213 25.449C21.2284 25.2955 21.2284 24.8572 20.9213 24.7037Z"/>
</mask>
<path fill-rule="evenodd" clip-rule="evenodd" d="M10 18C9.44772 18 9 18.4477 9 19V31C9 31.5523 9.44772 32 10 32H26C26.5523 32 27 31.5523 27 31V19C27 18.4477 26.5523 18 26 18H10ZM20.9213 24.7037L15.603 22.0445C15.326 21.906 15 22.1075 15 22.4172V27.7355C15 28.0453 15.326 28.2467 15.603 28.1082L20.9213 25.449C21.2284 25.2955 21.2284 24.8572 20.9213 24.7037Z" fill="white"/>
<path d="M15.603 22.0445L16.2738 20.7029L16.2738 20.7029L15.603 22.0445ZM20.9213 24.7037L20.2505 26.0453L20.2505 26.0453L20.9213 24.7037ZM15.603 28.1082L14.9322 26.7665L14.9322 26.7665L15.603 28.1082ZM20.9213 25.449L20.2505 24.1074L20.9213 25.449ZM10.5 19C10.5 19.2761 10.2761 19.5 10 19.5V16.5C8.61929 16.5 7.5 17.6193 7.5 19H10.5ZM10.5 31V19H7.5V31H10.5ZM10 30.5C10.2761 30.5 10.5 30.7239 10.5 31H7.5C7.5 32.3807 8.61929 33.5 10 33.5V30.5ZM26 30.5H10V33.5H26V30.5ZM25.5 31C25.5 30.7239 25.7239 30.5 26 30.5V33.5C27.3807 33.5 28.5 32.3807 28.5 31H25.5ZM25.5 19V31H28.5V19H25.5ZM26 19.5C25.7239 19.5 25.5 19.2761 25.5 19H28.5C28.5 17.6193 27.3807 16.5 26 16.5V19.5ZM10 19.5H26V16.5H10V19.5ZM14.9322 23.3862L20.2505 26.0453L21.5921 23.362L16.2738 20.7029L14.9322 23.3862ZM16.5 22.4172C16.5 23.2225 15.6525 23.7463 14.9322 23.3862L16.2738 20.7029C14.9994 20.0657 13.5 20.9924 13.5 22.4172H16.5ZM16.5 27.7355V22.4172H13.5V27.7355H16.5ZM14.9322 26.7665C15.6525 26.4064 16.5 26.9302 16.5 27.7355H13.5C13.5 29.1603 14.9994 30.087 16.2738 29.4498L14.9322 26.7665ZM20.2505 24.1074L14.9322 26.7665L16.2738 29.4498L21.5921 26.7907L20.2505 24.1074ZM20.2505 26.0453C19.452 25.6461 19.452 24.5066 20.2505 24.1074L21.5921 26.7907C23.0048 26.0843 23.0048 24.0684 21.5921 23.362L20.2505 26.0453Z" fill="white" mask="url(#path-2-inside-1_3148_11502)"/>
<path fill-rule="evenodd" clip-rule="evenodd" d="M23.8 0L36 12.3333H27.32C25.3759 12.3333 23.8 10.7415 23.8 8.77778V0Z" fill="#99CCFF"/>
</svg>
