<svg width="14" height="14" viewBox="0 0 14 14" fill="none" xmlns="http://www.w3.org/2000/svg">
<path d="M7 13.0551C3.668 13.0551 0.945 10.3321 0.945 7.00007C0.945 3.66807 3.668 0.945068 7 0.945068C10.332 0.945068 13.055 3.66807 13.055 7.00007C13.055 10.3321 10.332 13.0551 7 13.0551ZM7 12.1871C9.856 12.1871 12.187 9.85607 12.187 7.00007C12.187 4.14407 9.856 1.81307 7 1.81307C4.144 1.81307 1.813 4.14407 1.813 7.00007C1.813 9.85607 4.144 12.1871 7 12.1871ZM9.625 7.25207H4.655C4.459 7.25207 4.291 7.09107 4.291 6.88807V6.79007C4.291 6.59407 4.452 6.42607 4.655 6.42607H9.625C9.821 6.42607 9.989 6.58707 9.989 6.79007V6.88807C9.989 7.08407 9.821 7.25207 9.625 7.25207ZM6.72 9.59707L6.734 4.62707C6.734 4.43107 6.895 4.26307 7.098 4.26307H7.196C7.392 4.26307 7.56 4.42407 7.56 4.62707L7.546 9.59707C7.546 9.79307 7.385 9.96107 7.182 9.96107H7.084C6.881 9.96107 6.72 9.80007 6.72 9.59707Z" fill="#999999"/>
</svg>
