<svg width="16" height="16" viewBox="0 0 16 16" fill="none" xmlns="http://www.w3.org/2000/svg">
<path d="M7.99999 0C3.58279 0 0.00183105 3.58096 0.00183105 7.99816C0.00183105 12.4153 3.58287 15.9963 7.99999 15.9963C12.4172 15.9963 15.9982 12.4153 15.9982 7.99816C15.9982 3.58096 12.4172 0 7.99999 0Z" fill="#F2392F"/>
<path d="M11.7276 10.9541C11.9406 11.167 11.9407 11.5121 11.7279 11.7252C11.5149 11.9384 11.1694 11.9385 10.9564 11.7254L7.99999 8.76901L5.04362 11.7254C4.83055 11.9385 4.48506 11.9384 4.2721 11.7252C4.05931 11.5121 4.05942 11.167 4.27235 10.9541L7.22887 7.99789L4.27232 5.04134C4.05944 4.82846 4.05944 4.48332 4.27232 4.27044C4.48519 4.05757 4.83032 4.05756 5.0432 4.27042L7.99999 7.22685L10.9568 4.27041C11.1697 4.05756 11.5148 4.05757 11.7277 4.27044C11.9405 4.48332 11.9405 4.82846 11.7277 5.04134L8.77111 7.99789L11.7276 10.9541Z" fill="white"/>
</svg>
