<?xml version="1.0" standalone="no"?><!DOCTYPE svg PUBLIC "-//W3C//DTD SVG 1.1//EN" "http://www.w3.org/Graphics/SVG/1.1/DTD/svg11.dtd"><svg t="1607592489406" class="icon" viewBox="0 0 1024 1024" version="1.1" xmlns="http://www.w3.org/2000/svg" p-id="3955" width="28" height="28" xmlns:xlink="http://www.w3.org/1999/xlink"><defs><style type="text/css"></style></defs><path d="M871.673333 770.813333a53.393333 53.393333 0 0 1 0 75.42l-37.713333 37.713334c-27.866667 27.866667-64.52 44.84-108.946667 50.46a264.333333 264.333333 0 0 1-33.213333 2.04c-32.333333 0-67.22-5.46-104.146667-16.32C487.42 890.666667 382 824.226667 290.9 733.1S133.333333 536.586667 103.873333 436.346667c-14.666667-49.94-19.493333-96.153333-14.28-137.333334 5.62-44.426667 22.593333-81.08 50.46-108.946666l37.713334-37.713334a53.393333 53.393333 0 0 1 75.42 0l165.94 165.933334a53.4 53.4 0 0 1 0 75.426666l-37.713334 37.686667c-21.333333 21.333333-0.1 90.413333 60.34 150.846667s129.486667 81.7 150.846667 60.34l37.713333-37.713334a53.4 53.4 0 0 1 75.426667 0zM789.333333 384a21.333333 21.333333 0 0 0 21.333334-21.333333V192a21.333333 21.333333 0 0 0-42.666667 0v170.666667a21.333333 21.333333 0 0 0 21.333333 21.333333z m-128-42.666667h-42.666666a21.333333 21.333333 0 0 0 0 42.666667h42.666666a64 64 0 0 0 0-128 21.333333 21.333333 0 0 1 0-42.666667h42.666667a21.333333 21.333333 0 0 0 0-42.666666h-42.666667a64 64 0 0 0 0 128 21.333333 21.333333 0 0 1 0 42.666666z m320-106.666666a64.073333 64.073333 0 0 1-64 64h-21.333333v64a21.333333 21.333333 0 0 1-42.666667 0V192a21.333333 21.333333 0 0 1 21.333334-21.333333h42.666666a64.073333 64.073333 0 0 1 64 64z m-42.666666 0a21.333333 21.333333 0 0 0-21.333334-21.333334h-21.333333v42.666667h21.333333a21.333333 21.333333 0 0 0 21.333334-21.333333z" fill="#337EFF" p-id="3956"></path></svg>