<?xml version="1.0" standalone="no"?><!DOCTYPE svg PUBLIC "-//W3C//DTD SVG 1.1//EN" "http://www.w3.org/Graphics/SVG/1.1/DTD/svg11.dtd"><svg t="1603865104783" class="icon" viewBox="0 0 1024 1024" version="1.1" xmlns="http://www.w3.org/2000/svg" p-id="4849" width="14" height="14" xmlns:xlink="http://www.w3.org/1999/xlink"><defs><style type="text/css"></style></defs><path d="M876.885333 170.666667c29.923556 0 54.158222 24.234667 54.158223 54.158222V719.36c0 29.895111-24.234667 54.158222-54.158223 54.158222l-729.6 2.474667c-29.866667 0-54.158222-26.737778-54.158222-56.604445V224.796444C93.127111 194.901333 117.390222 170.666667 147.285333 170.666667h729.6z m-391.68 139.747555l-124.16 128.853334c-15.758222 16.355556-4.608 44.316444 17.692445 44.316444h64.682666c13.767111 0 24.974222 11.605333 24.974223 25.941333v91.022223c0 25.031111 19.598222 45.368889 43.719111 45.368888 24.177778 0 44.572444-20.309333 44.572444-45.368888v-91.022223c0-14.336 11.207111-25.941333 25.002667-25.941333h64.284444c22.300444 0 33.450667-27.960889 17.692445-44.288l-124.131556-128.853333a37.404444 37.404444 0 0 0-54.328889 0z" p-id="4850" fill="#337EFF"></path><path d="M288 853.333333h448a32 32 0 0 1 0 64h-448a32 32 0 0 1 0-64z" p-id="4851" fill="#337EFF"></path></svg>