<?xml version="1.0" standalone="no"?><!DOCTYPE svg PUBLIC "-//W3C//DTD SVG 1.1//EN" "http://www.w3.org/Graphics/SVG/1.1/DTD/svg11.dtd"><svg t="1603865232488" class="icon" viewBox="0 0 1024 1024" version="1.1" xmlns="http://www.w3.org/2000/svg" p-id="5174" width="28" height="28" xmlns:xlink="http://www.w3.org/1999/xlink"><defs><style type="text/css"></style></defs><path d="M268.231111 205.312h380.984889s91.363556 0 91.363556 93.383111v378.993778L268.231111 205.312zM22.812444 249.571556l570.083556 570.083555H103.594667s-91.363556 0-91.363556-90.652444V295.964444c0-19.256889 4.124444-34.417778 10.609778-46.364444z m976.867556-10.865778a20.622222 20.622222 0 0 1 13.425778 19.228444v513.649778c0 8.248889-2.673778 16.469333-10.752 19.228444-5.376 2.730667-8.049778 2.730667-10.723556 2.730667a20.309333 20.309333 0 0 1-13.454222-5.489778l-180.053333-142.848c-5.404444-2.730667-8.078222-10.979556-8.078223-16.469333V400.782222c0-5.489778 2.673778-10.979556 8.049778-16.497778l180.081778-142.791111c5.404444-5.518222 13.454222-5.518222 21.504-2.759111zM49.436444 131.356444a40.96 40.96 0 0 1 57.941334 0l666.168889 666.168889a40.96 40.96 0 1 1-57.912889 57.912889L49.436444 189.269333a40.96 40.96 0 0 1 0-57.912889z" p-id="5175" fill="#FE3B30"></path></svg>