<?xml version="1.0" standalone="no"?><!DOCTYPE svg PUBLIC "-//W3C//DTD SVG 1.1//EN" "http://www.w3.org/Graphics/SVG/1.1/DTD/svg11.dtd"><svg t="1603864931021" class="icon" viewBox="0 0 1024 1024" version="1.1" xmlns="http://www.w3.org/2000/svg" p-id="3672" width="28" height="28" xmlns:xlink="http://www.w3.org/1999/xlink"><defs><style type="text/css"></style></defs><path d="M323.498667 465.777778l240.469333 240.440889a189.582222 189.582222 0 0 1-51.256889 7.025777c-104.561778 0-186.709333-84.650667-189.212444-189.184v-58.311111z m0-86.897778V263.025778L677.546667 617.045333a189.952 189.952 0 0 1-54.840889 61.013334L323.498667 378.88z m2.645333-200.106667a189.155556 189.155556 0 0 1 186.567111-157.582222 189.098667 189.098667 0 0 1 189.155556 189.212445v313.656888c0 9.642667-0.682667 19.086222-2.076445 28.359112L326.144 178.773333z" p-id="3673" fill="#FE3B30"></path><path d="M812.942222 665.6l-57.116444-57.173333a257.052444 257.052444 0 0 0 13.283555-81.891556v-102.058667c0-19.911111 17.408-37.347556 37.347556-37.347555 19.911111 0 37.319111 14.933333 37.319111 37.347555v102.058667c0 49.493333-11.064889 96.654222-30.833778 139.036445z m-32.170666 54.670222a335.416889 335.416889 0 0 1-55.864889 60.017778l-52.736-52.764444a256.938667 256.938667 0 0 0 55.267555-60.586667l53.333334 53.333333z m-107.235556 95.516445a322.417778 322.417778 0 0 1-123.505778 39.338666v110.023111a37.347556 37.347556 0 0 1-74.666666 0v-110.023111c-164.295111-17.408-293.745778-159.288889-293.745778-328.590222v-112.014222c0-19.911111 17.436444-37.347556 37.347555-37.347556s37.319111 17.436444 37.319111 37.347556v112.014222a256.028444 256.028444 0 0 0 256.426667 256.398222 256.199111 256.199111 0 0 0 105.443556-22.499555l55.381333 55.352889z" p-id="3674" fill="#FE3B30"></path><path d="M149.959111 147.399111a40.96 40.96 0 0 1 57.941333 0l666.140445 666.168889a40.96 40.96 0 0 1-57.912889 57.912889L149.930667 205.312a40.96 40.96 0 0 1 0-57.912889z" p-id="3675" fill="#FE3B30"></path></svg>