<svg width="18" height="16" viewBox="0 0 18 16" fill="none" xmlns="http://www.w3.org/2000/svg">
<path d="M17.3333 8.81824V12.9995C17.3333 14.2651 16.3073 15.2912 15.0416 15.2912H2.95829C1.69267 15.2912 0.666626 14.2651 0.666626 12.9995V2.99949C0.666626 1.73386 1.69267 0.707821 2.95829 0.707821H15.0416C16.3073 0.707821 17.3333 1.73386 17.3333 2.99949V8.81824ZM16.0833 7.36074V2.99949C16.0833 2.86269 16.0563 2.72724 16.004 2.60086C15.9517 2.47448 15.8749 2.35965 15.7782 2.26292C15.6815 2.16619 15.5666 2.08946 15.4403 2.03711C15.3139 1.98476 15.1784 1.95782 15.0416 1.95782H2.95829C2.8215 1.95782 2.68604 1.98476 2.55966 2.03711C2.43328 2.08946 2.31845 2.16619 2.22172 2.26292C2.125 2.35965 2.04827 2.47448 1.99592 2.60086C1.94357 2.72724 1.91663 2.86269 1.91663 2.99949V9.72761C2.19251 9.68664 2.47105 9.6661 2.74996 9.66615C4.05675 9.66424 5.32311 10.1192 6.32996 10.9522C7.34038 8.31949 9.87704 6.54115 12.75 6.54115C14.0333 6.54115 15.2304 6.86886 16.0833 7.36074ZM16.0833 8.96699C15.9791 8.80449 15.6706 8.54407 15.2308 8.32407C14.5618 7.98949 13.7079 7.79115 12.75 7.79115C10.3716 7.79115 8.27475 9.28074 7.46808 11.4766C7.41475 11.622 7.3235 11.8734 7.19475 12.2301C7.04475 12.6462 6.52183 12.7791 6.19142 12.4851C5.87038 12.1993 5.63371 11.9955 5.48558 11.8768C4.71026 11.2534 3.74481 10.9144 2.74996 10.9162C2.46746 10.9162 2.18892 10.9428 1.91663 10.9953V12.9995C1.91663 13.1363 1.94357 13.2717 1.99592 13.3981C2.04827 13.5245 2.125 13.6393 2.22172 13.7361C2.31845 13.8328 2.43328 13.9095 2.55966 13.9619C2.68604 14.0142 2.8215 14.0412 2.95829 14.0412H15.0416C15.1784 14.0412 15.3139 14.0142 15.4403 13.9619C15.5666 13.9095 15.6815 13.8328 15.7782 13.7361C15.8749 13.6393 15.9517 13.5245 16.004 13.3981C16.0563 13.2717 16.0833 13.1363 16.0833 12.9995V8.96678V8.96699ZM5.24996 7.37449C4.75268 7.37449 4.27576 7.17694 3.92413 6.82531C3.5725 6.47368 3.37496 5.99677 3.37496 5.49949C3.37496 5.00221 3.5725 4.52529 3.92413 4.17366C4.27576 3.82203 4.75268 3.62449 5.24996 3.62449C5.74724 3.62449 6.22415 3.82203 6.57578 4.17366C6.92742 4.52529 7.12496 5.00221 7.12496 5.49949C7.12496 5.99677 6.92742 6.47368 6.57578 6.82531C6.22415 7.17694 5.74724 7.37449 5.24996 7.37449ZM5.24996 6.12449C5.41572 6.12449 5.57469 6.05864 5.6919 5.94143C5.80911 5.82422 5.87496 5.66525 5.87496 5.49949C5.87496 5.33373 5.80911 5.17476 5.6919 5.05755C5.57469 4.94033 5.41572 4.87449 5.24996 4.87449C5.0842 4.87449 4.92523 4.94033 4.80802 5.05755C4.69081 5.17476 4.62496 5.33373 4.62496 5.49949C4.62496 5.66525 4.69081 5.82422 4.80802 5.94143C4.92523 6.05864 5.0842 6.12449 5.24996 6.12449Z" fill="#656A72"/>
</svg>
