<?xml version="1.0" standalone="no"?><!DOCTYPE svg PUBLIC "-//W3C//DTD SVG 1.1//EN" "http://www.w3.org/Graphics/SVG/1.1/DTD/svg11.dtd"><svg t="1599725485720" class="icon" viewBox="0 0 1024 1024" version="1.1" xmlns="http://www.w3.org/2000/svg" p-id="2300" width="42" height="42" xmlns:xlink="http://www.w3.org/1999/xlink"><defs><style type="text/css"></style></defs><path d="M837.76 142.976h-46.464V73.152c0-12.864-10.432-23.296-23.296-23.296h-46.528c-12.864 0-23.296 10.432-23.296 23.296v69.76H325.824v-69.76c0-12.864-10.432-23.296-23.296-23.296H256c-12.8 0-23.296 10.432-23.296 23.296v69.76H186.24c-51.392 0-93.056 41.728-93.056 93.12v605.12c0 51.392 41.6 93.056 93.056 93.056h651.648c51.392 0 93.056-41.6 93.056-93.056V236.032c0-51.392-41.6-93.056-93.056-93.056z m-29.312 702.592H214.208a42.688 42.688 0 0 1-42.624-42.688v-448.64c0-23.488 19.072-42.624 42.624-42.624h594.24c23.552 0 42.688 19.136 42.688 42.688v448.64a42.688 42.688 0 0 1-42.688 42.624zM304.96 448.256h415.808a40.256 40.256 0 0 1 0 80.448H304.96a40.256 40.256 0 1 1 0-80.448z m0 172.928h159.488a40.256 40.256 0 0 1 0 80.448H304.96a40.256 40.256 0 1 1 0-80.448z" fill="#337EFF" p-id="2301"></path></svg>