<?xml version="1.0" standalone="no"?><!DOCTYPE svg PUBLIC "-//W3C//DTD SVG 1.1//EN" "http://www.w3.org/Graphics/SVG/1.1/DTD/svg11.dtd"><svg t="1607756278953" class="icon" viewBox="0 0 1024 1024" version="1.1" xmlns="http://www.w3.org/2000/svg" p-id="3265" xmlns:xlink="http://www.w3.org/1999/xlink" width="16" height="16"><defs><style type="text/css"></style></defs><path d="M447.317333 511.232L147.683556 810.865778l60.444444 60.444444 299.633778-299.633778-60.444445-60.444444z m283.648-134.542222a63.971556 63.971556 0 0 1-0.369777 90.652444L253.667556 944.298667c-25.144889 25.144889-66.048 24.974222-90.680889 0.341333l-88.632889-88.632889a63.971556 63.971556 0 0 1 0.369778-90.652444l476.928-476.956445c25.144889-25.144889 66.048-25.002667 90.680888-0.369778l88.632889 88.632889zM388.039111 191.004444l-90.112-35.555555 90.112-35.555556 35.555556-90.112 35.555555 90.140445 90.140445 35.555555-90.140445 35.555556-35.555555 90.112-35.555556-90.140445z m439.921778 0l-90.168889-35.555555 90.168889-35.555556 35.555555-90.112 35.555556 90.140445 90.112 35.555555-90.140444 35.555556-35.555556 90.112-35.555556-90.140445z m0 418.986667l-90.168889-35.555555 90.168889-35.555556 35.555555-90.168889 35.555556 90.168889 90.112 35.555556-90.140444 35.555555-35.555556 90.112-35.555556-90.140444z" fill="#337EFF" p-id="3266"></path></svg>