<?xml version="1.0" standalone="no"?><!DOCTYPE svg PUBLIC "-//W3C//DTD SVG 1.1//EN" "http://www.w3.org/Graphics/SVG/1.1/DTD/svg11.dtd"><svg t="1603864647032" class="icon" viewBox="0 0 1024 1024" version="1.1" xmlns="http://www.w3.org/2000/svg" p-id="2533" width="16" height="16" xmlns:xlink="http://www.w3.org/1999/xlink"><defs><style type="text/css"></style></defs><path d="M940.657778 545.166222V472.746667c0-14.620444-10.325333-27.221333-24.661334-30.094223l-93.525333-18.688a30.805333 30.805333 0 0 1-22.869333-19.768888c-3.100444-8.533333-6.542222-16.867556-10.382222-25.031112a30.833778 30.833778 0 0 1 2.190222-30.179555l52.906666-79.36a30.663111 30.663111 0 0 0-3.84-38.684445l-51.2-51.2a30.663111 30.663111 0 0 0-38.684444-3.84l-79.36 52.906667c-8.988444 5.973333-20.423111 6.798222-30.151111 2.190222-8.192-3.84-16.526222-7.281778-25.059556-10.382222a30.776889 30.776889 0 0 1-19.768889-22.840889l-18.716444-93.582222a30.663111 30.663111 0 0 0-30.065778-24.632889h-72.391111c-14.620444 0-27.192889 10.325333-30.065778 24.661333l-18.716444 93.525334a30.805333 30.805333 0 0 1-19.768889 22.869333c-8.533333 3.100444-16.867556 6.542222-25.031111 10.382222a30.805333 30.805333 0 0 1-30.151111-2.190222l-79.36-52.906667A30.663111 30.663111 0 0 0 233.244444 179.768889l-51.2 51.2c-10.325333 10.325333-11.946667 26.510222-3.84 38.684444l52.906667 79.36c5.973333 8.988444 6.826667 20.423111 2.218667 30.151111-3.84 8.192-7.310222 16.526222-10.382222 25.059556-3.640889 10.126222-12.316444 17.635556-22.869334 19.768889l-93.525333 18.716444c-14.336 2.844444-24.661333 15.445333-24.661333 30.065778v72.362667c0 14.620444 10.325333 27.221333 24.661333 30.094222l93.525333 18.688c10.524444 2.133333 19.228444 9.642667 22.869334 19.768889 3.072 8.533333 6.542222 16.867556 10.382222 25.031111 4.579556 9.756444 3.754667 21.191111-2.190222 30.179556l-52.906667 79.36c-8.135111 12.174222-6.542222 28.387556 3.811555 38.712888l51.2 51.2c10.325333 10.325333 26.538667 11.946667 38.684445 3.811556l79.36-52.906667c8.988444-5.973333 20.451556-6.769778 30.179555-2.190222 8.163556 3.84 16.497778 7.310222 25.031112 10.382222 10.154667 3.640889 17.635556 12.316444 19.768888 22.869334l18.716445 93.525333c2.844444 14.336 15.445333 24.661333 30.065778 24.661333h72.391111c14.620444 0 27.192889-10.325333 30.065778-24.661333l18.716444-93.525333c2.133333-10.524444 9.642667-19.228444 19.768889-22.869334 8.533333-3.072 16.867556-6.542222 25.031111-10.382222a30.833778 30.833778 0 0 1 30.151111 2.190222l79.388445 52.906667c12.174222 8.106667 28.359111 6.513778 38.684444-3.811556l51.2-51.2c10.353778-10.325333 11.946667-26.538667 3.84-38.684444l-52.906667-79.36a30.833778 30.833778 0 0 1-2.190222-30.179556c3.84-8.163556 7.281778-16.497778 10.353778-25.031111 3.669333-10.154667 12.316444-17.635556 22.869333-19.797333l93.525334-18.688c14.336-2.872889 24.661333-15.445333 24.689777-30.065778z m-299.264 93.923556a184.035556 184.035556 0 1 1 53.902222-130.133334 182.812444 182.812444 0 0 1-53.902222 130.104889z" fill="#337EFF" p-id="2534"></path></svg>