<?xml version="1.0" standalone="no"?><!DOCTYPE svg PUBLIC "-//W3C//DTD SVG 1.1//EN" "http://www.w3.org/Graphics/SVG/1.1/DTD/svg11.dtd"><svg t="1603869195117" class="icon" viewBox="0 0 1024 1024" version="1.1" xmlns="http://www.w3.org/2000/svg" p-id="2545" width="32" height="32" xmlns:xlink="http://www.w3.org/1999/xlink"><defs><style type="text/css"></style></defs><path d="M512.711111 713.244444a189.098667 189.098667 0 0 0 189.155556-189.184V210.403556a189.098667 189.098667 0 0 0-189.155556-189.212445 189.098667 189.098667 0 0 0-189.212444 189.212445v313.656888c2.503111 104.533333 84.650667 189.184 189.212444 189.184z" p-id="2546" fill="#337EFF"></path><path d="M806.456889 387.128889c-19.911111 0-37.347556 17.436444-37.347556 37.347555v102.058667a256.028444 256.028444 0 0 1-256.398222 256.398222 256.028444 256.028444 0 0 1-256.426667-256.398222v-112.014222c0-19.911111-17.408-37.347556-37.319111-37.347556-19.911111 0-37.347556 17.436444-37.347555 37.347556v112.014222c0 169.272889 129.422222 311.182222 293.745778 328.590222v110.023111a37.347556 37.347556 0 1 0 74.666666 0v-110.023111c164.295111-17.408 293.745778-159.288889 293.745778-328.590222v-102.058667c0-22.414222-17.408-37.347556-37.319111-37.347555z" p-id="2547" fill="#337EFF"></path></svg>