<svg width="16" height="15" viewBox="0 0 16 15" fill="none" xmlns="http://www.w3.org/2000/svg">
<path fill-rule="evenodd" clip-rule="evenodd" d="M1.33333 0C0.596954 0 0 0.596954 0 1.33333V13.0667C0 13.803 0.596953 14.4 1.33333 14.4H14.6667C15.403 14.4 16 13.803 16 13.0667V1.33333C16 0.596954 15.403 0 14.6667 0H1.33333ZM9.53079 7.40363C9.5289 7.66018 9.52718 7.89314 9.55555 8.18627C9.71256 8.61574 10.2176 8.78691 10.7807 8.97778C11.5579 9.24122 12.446 9.5422 12.6826 10.6117C12.7159 10.7622 12.7589 10.9924 12.2909 11.1671C10.7444 11.7443 6.11975 11.7443 4.45211 11.1671C3.91429 10.981 3.99586 10.6853 4.01719 10.608C4.01815 10.6046 4.01898 10.6015 4.01964 10.599C4.28466 9.5608 5.15645 9.257 5.91768 8.99173C6.47491 8.79755 6.9729 8.62401 7.13028 8.19816C7.15863 7.8958 7.15693 7.66854 7.15504 7.41491C7.15456 7.34942 7.15406 7.28216 7.15406 7.21141C6.98762 7.12819 6.39319 6.55754 6.34563 6.07011C6.21486 6.05822 6.00086 5.92744 5.94142 5.40435C5.90576 5.11902 6.03653 4.96447 6.11975 4.91691C5.66798 3.16929 6.2743 1.63567 8.31914 1.6C8.83035 1.6 9.22267 1.74266 9.37722 2.00421C10.8752 2.20632 10.7801 4.25115 10.5661 4.90503C10.6493 4.95258 10.7801 5.11902 10.7444 5.39246C10.685 5.91555 10.471 6.04633 10.3402 6.05822C10.2926 6.53376 9.69821 7.10441 9.53177 7.19952C9.53177 7.27007 9.53127 7.33763 9.53079 7.40363Z" fill="#337EFF"/>
</svg>
