<?xml version="1.0" standalone="no"?><!DOCTYPE svg PUBLIC "-//W3C//DTD SVG 1.1//EN" "http://www.w3.org/Graphics/SVG/1.1/DTD/svg11.dtd"><svg t="1603869834436" class="icon" viewBox="0 0 1024 1024" version="1.1" xmlns="http://www.w3.org/2000/svg" p-id="3194" width="32" height="32" xmlns:xlink="http://www.w3.org/1999/xlink"><defs><style type="text/css"></style></defs><path d="M512 1024c277.082353 0 512-234.917647 512-512S789.082353 0 512 0C228.894118 0 0 234.917647 0 512S234.917647 1024 512 1024z m-180.705882-289.129412c-24.094118 0-42.164706-18.070588-42.164706-42.164706 0-12.047059 6.023529-24.094118 12.047059-30.117647l150.588235-150.588235L301.176471 361.411765c-6.023529-6.023529-12.047059-18.070588-12.047059-30.117647 0-24.094118 18.070588-42.164706 42.164706-42.164706 12.047059 0 24.094118 6.023529 30.117647 12.047059l150.588235 150.588235L662.588235 301.176471c6.023529-12.047059 18.070588-12.047059 30.117647-12.047059 24.094118 0 42.164706 18.070588 42.164706 42.164706 0 12.047059-6.023529 18.070588-12.047059 30.117647L572.235294 512 722.823529 662.588235c6.023529 6.023529 12.047059 18.070588 12.047059 30.117647 0 24.094118-18.070588 42.164706-42.164706 42.164706-12.047059 0-24.094118-6.023529-30.117647-12.047059L512 572.235294 361.411765 722.823529c-6.023529 6.023529-18.070588 12.047059-30.117647 12.047059z" fill="#8A8A8E" p-id="3195"></path></svg>