<?xml version="1.0" standalone="no"?><!DOCTYPE svg PUBLIC "-//W3C//DTD SVG 1.1//EN" "http://www.w3.org/Graphics/SVG/1.1/DTD/svg11.dtd"><svg t="1600086158791" class="icon" viewBox="0 0 1024 1024" version="1.1" xmlns="http://www.w3.org/2000/svg" p-id="8337" xmlns:xlink="http://www.w3.org/1999/xlink" width="200" height="200"><defs><style type="text/css"></style></defs><path d="M553.1 511.9c0-8.3-3.1-15.8-8.3-21.5l-2.2-2.2-21.5-21.5L345.4 291c-12.4-12.4-32.8-12.4-45.3 0-12.4 12.4-12.4 32.8 0 45.3L475.9 512 300.2 687.8c-12.4 12.4-12.4 32.8 0 45.3 12.4 12.4 32.8 12.4 45.2-0.1l175.7-175.7 21.8-21.8 1.8-1.8c5.3-5.7 8.5-13.4 8.4-21.8z" fill="#8BB5FF" p-id="8338"></path><path d="M733.2 511.9c0-8.3-3.1-15.8-8.3-21.5l-2.2-2.2-21.5-21.5L525.5 291c-12.4-12.4-32.8-12.4-45.3 0-12.4 12.4-12.4 32.8 0 45.3L656 512 480.3 687.8c-12.4 12.4-12.4 32.8 0 45.3 12.4 12.4 32.8 12.4 45.2-0.1l175.7-175.7 21.8-21.8 1.8-1.8c5.3-5.7 8.5-13.4 8.4-21.8z" fill="#8BB5FF" p-id="8339"></path></svg>