<svg width="40" height="40" viewBox="0 0 40 40" fill="none" xmlns="http://www.w3.org/2000/svg">
<path fill-rule="evenodd" clip-rule="evenodd" d="M7.52 0H23.8L36 12.3333V36.4444C36 38.4081 34.424 40 32.48 40H7.52C5.57596 40 4 38.4081 4 36.4444V3.55556C4 1.59188 5.57596 0 7.52 0Z" fill="#3078F2"/>
<path fill-rule="evenodd" clip-rule="evenodd" d="M23.8 0L36 12.3333H27.32C25.3759 12.3333 23.8 10.7415 23.8 8.77778V0Z" fill="#96BCFD"/>
<path d="M17.9653 21.823L15.2333 31.3334H13.0969L9.75049 18.0131H12.076L14.2596 26.8551L16.9443 18.0131H18.9767L21.6425 26.7691L23.8735 18.0131H26.18L22.8147 31.3334H20.6972L17.9653 21.823Z" fill="white"/>
</svg>
