<svg width="40" height="40" viewBox="0 0 40 40" fill="none" xmlns="http://www.w3.org/2000/svg">
<path fill-rule="evenodd" clip-rule="evenodd" d="M7.52 0H23.8L36 12.3333V36.4444C36 38.4081 34.424 40 32.48 40H7.52C5.57596 40 4 38.4081 4 36.4444V3.55556C4 1.59188 5.57596 0 7.52 0Z" fill="#E64545"/>
<path fill-rule="evenodd" clip-rule="evenodd" d="M23.8 0L36 12.3333H27.32C25.3759 12.3333 23.8 10.7415 23.8 8.77778V0Z" fill="#FC8B8B"/>
<path fill-rule="evenodd" clip-rule="evenodd" d="M10.8945 26.4648H11.4922C12.0508 26.4648 12.4687 26.3545 12.7461 26.1338C13.0234 25.9131 13.1621 25.5918 13.1621 25.1699C13.1621 24.7441 13.0459 24.4297 12.8135 24.2266C12.5811 24.0234 12.2168 23.9219 11.7207 23.9219H10.8945V26.4648ZM14.9961 25.1055C14.9961 26.0273 14.708 26.7324 14.1318 27.2207C13.5557 27.709 12.7363 27.9531 11.6738 27.9531H10.8945V31H9.07812V22.4336H11.8145C12.8535 22.4336 13.6436 22.6572 14.1846 23.1045C14.7256 23.5518 14.9961 24.2187 14.9961 25.1055ZM23.7207 26.6348C23.7207 28.0449 23.3193 29.125 22.5166 29.875C21.7139 30.625 20.5547 31 19.0391 31H16.6133V22.4336H19.3027C20.7012 22.4336 21.7871 22.8027 22.5605 23.541C23.334 24.2793 23.7207 25.3105 23.7207 26.6348ZM21.834 26.6816C21.834 24.8418 21.0215 23.9219 19.3965 23.9219H18.4297V29.5H19.209C20.959 29.5 21.834 28.5606 21.834 26.6816ZM27.2832 31H25.4961V22.4336H30.4062V23.9219H27.2832V26.1309H30.1895V27.6133H27.2832V31Z" fill="white"/>
</svg>
