<?xml version="1.0" standalone="no"?><!DOCTYPE svg PUBLIC "-//W3C//DTD SVG 1.1//EN" "http://www.w3.org/Graphics/SVG/1.1/DTD/svg11.dtd"><svg t="1603864799781" class="icon" viewBox="0 0 1024 1024" version="1.1" xmlns="http://www.w3.org/2000/svg" p-id="3338" width="32" height="32" xmlns:xlink="http://www.w3.org/1999/xlink"><defs><style type="text/css"></style></defs><path d="M649.216 205.312H103.594667S12.231111 205.312 12.231111 295.964444v433.038223c0 90.652444 91.363556 90.652444 91.363556 90.652444h545.621333s91.363556 0 91.363556-90.652444V298.695111c0-93.383111-91.363556-93.383111-91.363556-93.383111z m350.492444 33.393778c-8.049778-2.759111-16.128-2.759111-21.504 2.730666l-180.053333 142.848c-5.404444 5.489778-8.078222 10.979556-8.078222 16.497778v227.953778c0 5.489778 2.673778 13.738667 8.049778 16.497778l180.081777 142.791111a20.309333 20.309333 0 0 0 13.454223 5.518222c2.673778 0 5.347556 0 10.723555-2.730667 8.078222-2.759111 10.752-11.008 10.752-19.228444V257.934222c0-8.248889-5.376-16.497778-13.425778-19.228444z" p-id="3339" fill="#C5C8CD"></path></svg>